<?xml version="1.0" encoding="utf-8"?>
<!-- Generator: Adobe Illustrator 13.0.0, SVG Export Plug-In . SVG Version: 6.00 Build 14948)  -->
<!DOCTYPE svg PUBLIC "-//W3C//DTD SVG 1.1//EN" "http://www.w3.org/Graphics/SVG/1.1/DTD/svg11.dtd">
<svg version="1.1" id="Layer_1" xmlns="http://www.w3.org/2000/svg" xmlns:xlink="http://www.w3.org/1999/xlink" x="0px" y="0px"
	 width="500px" height="200px" viewBox="0 0 500 200" enable-background="new 0 0 500 200" xml:space="preserve">
<path fill="#00A2D4" d="M146.949,125.191l-135.001-0.157c0,29.367,17.882,61.676,65.926,61.676
	c55.849,0,61.097-43.881,61.097-43.881h6.18c0,0-2.716,49.864-67.592,49.864c-49.885,0-71.595-32.438-71.595-68.446
	c0-2.1,0-4.056,0-5.63c0-21.874,14.382-64.601,71.28-64.601C145.06,54.017,146.949,117.845,146.949,125.191z M12.027,118.736
	l128.204-0.158c0,0-3.569-59.208-63.617-59.208C24.126,59.371,12.027,102.674,12.027,118.736z"/>
<path fill="#00A2D4" d="M356.694,125.191l-135-0.157c0,29.367,17.882,61.676,65.926,61.676c55.85,0,61.098-43.881,61.098-43.881
	h6.18c0,0-2.716,49.864-67.592,49.864c-49.885,0-71.595-32.438-71.595-68.446c0-2.1,0-4.056,0-5.63
	c0-21.874,14.382-64.601,71.279-64.601C354.804,54.017,356.694,117.845,356.694,125.191z M221.773,118.736l128.205-0.158
	c0,0-3.568-59.208-63.617-59.208C233.872,59.371,221.773,102.674,221.773,118.736z"/>
<path fill="#00A2D4" d="M493.43,101.362v87.762h-5.511V107.24c0,0,4.515-47.975-51.754-47.975c-47.66,0-59.733,36.795-59.942,44.983
	c-0.246,9.656,0,85.297,0,85.297h-5.563V58.426h5.563v29.342c0,0,10.759-33.751,59.417-33.751
	C482.252,54.017,493.43,82.991,493.43,101.362z"/>
<rect x="166.056" y="7.721" fill="#00A2D4" width="5.669" height="181.403"/>
<rect x="197.549" y="7.721" fill="#00A2D4" width="5.669" height="181.403"/>
</svg>
